<svg width="430" height="341" viewBox="0 0 430 341" fill="none" xmlns="http://www.w3.org/2000/svg">
<path d="M340.899 196.516C340.987 198.575 339.968 200.89 339.763 202.738C339.633 203.909 339.736 205.183 339.087 206.167C337.764 208.173 334.737 207.707 332.7 207.944C331.107 208.129 329.46 208.31 327.928 207.837C327.02 207.557 326.197 207.058 325.385 206.565C324.728 206.166 324.062 205.76 323.539 205.196C322.845 204.447 322.454 203.475 321.901 202.617C321.49 201.979 320.987 201.403 320.578 200.763C319.62 199.268 319.202 197.435 319.417 195.672C319.541 194.651 319.887 193.629 320.569 192.859C321.149 192.203 321.937 191.765 322.75 191.442C323.865 190.999 325.057 190.75 326.257 190.727C328.433 190.686 330.545 191.379 332.658 191.903C333.68 192.156 334.711 192.371 335.747 192.556C336.59 192.707 337.443 192.839 338.247 193.134C338.827 193.347 339.777 193.715 340.154 194.235C340.655 194.924 340.864 195.7 340.899 196.516Z" fill="#EDD59F"/>
<path d="M320.176 191.579C319.566 193.192 317.07 196.536 317.667 198.153C319.213 202.341 321.568 204.011 325.575 205.974C327.433 206.884 329.558 207.467 331.572 206.995C333.586 206.523 335.39 204.754 335.367 202.685C335.356 201.751 334.993 200.815 335.196 199.903C335.573 198.214 337.407 197.716 339.272 197.753C340.706 197.781 341.755 196.37 341.226 195.036C340.624 193.516 339.273 192.091 338.001 190.97C333.095 186.652 323.679 182.314 320.176 191.579Z" fill="#511F12"/>
<path d="M16.2049 228.5V208.342L105.134 67.6361H119.758V98.8603H109.877L42.6861 205.18V206.761H162.444V228.5H16.2049ZM111.458 270V222.373V212.986V67.6361H134.777V270H111.458Z" fill="#3F51B5" fill-opacity="0.74"/>
<path d="M267.183 231.873V211.716L356.112 71.0096H370.736V102.234H360.855L293.664 208.554V210.135H413.422V231.873H267.183ZM362.436 273.374V225.747V216.36V71.0096H385.755V273.374H362.436Z" fill="#3F51B5" fill-opacity="0.74"/>
<path opacity="0.2" d="M241.721 266.047C237.43 263.296 235.621 257.76 237.823 253.163C239.259 250.165 241.934 248.27 244.876 247.679C245.819 247.49 246.052 246.254 245.243 245.735C240.952 242.984 239.143 237.448 241.345 232.851C242.781 229.853 245.455 227.958 248.398 227.367C249.341 227.178 249.574 225.942 248.765 225.423L247.937 224.892C243.594 222.107 241.794 216.476 244.095 211.857C246.348 207.334 251.453 205.374 255.953 206.728C256.65 206.938 257.337 206.384 257.304 205.657C257.202 203.431 257.837 201.151 259.295 199.21C262.473 194.977 268.51 194.13 272.965 196.987L274.083 197.704C274.783 198.153 275.734 197.668 275.732 196.837C275.728 194.522 276.521 192.177 278.213 190.241C281.508 186.471 287.186 185.912 291.401 188.614L299.963 194.104C300.607 194.517 301.473 194.142 301.604 193.389C308.938 151.112 290.72 106.604 251.835 82.4764C202.161 51.6534 136.269 66.0834 104.022 114.845C70.5339 165.485 85.0339 233.559 135.971 266.221C170.267 288.213 212.243 288.463 245.798 270.552C246.517 270.168 246.551 269.145 245.864 268.705L241.721 266.047ZM174.369 206.334C156.973 195.18 151.896 171.953 163.05 154.557C174.204 137.162 197.431 132.084 214.827 143.238C232.223 154.392 237.3 177.619 226.146 195.015C214.992 212.41 191.765 217.488 174.369 206.334Z" fill="#302B44"/>
<path d="M279.622 159.417C276.289 159.917 249.289 170.75 247.122 173.084C244.955 175.417 230.455 198.251 230.455 198.917C230.455 199.584 230.788 212.417 230.955 213.25C231.005 213.502 232.217 214.227 233.96 215.156C234.126 214.436 234.367 213.725 234.709 213.037C236.957 208.523 242.046 206.561 246.54 207.899C247.234 208.106 247.951 207.56 247.918 206.836C247.816 204.611 248.451 202.33 249.908 200.389C253.086 196.156 259.124 195.309 263.58 198.167L264.511 198.764C265.419 199.346 266.345 198.828 266.347 197.976C266.352 195.674 267.146 193.346 268.828 191.421C271.954 187.845 278.016 187.229 282.014 189.793L282.19 189.906C286.896 192.924 293.078 189.82 293.498 184.27C294.029 177.256 293.873 170.232 293.057 163.298C287.422 161.212 281.307 159.164 279.622 159.417Z" fill="#EDD59F"/>
<path d="M233.721 256.047C229.43 253.296 227.621 247.76 229.823 243.163C231.259 240.165 233.934 238.27 236.876 237.679C237.819 237.489 238.052 236.254 237.243 235.735C232.952 232.984 231.143 227.448 233.345 222.851C234.781 219.853 237.456 217.958 240.398 217.367C241.341 217.177 241.574 215.942 240.765 215.423L239.937 214.892C235.594 212.107 233.795 206.476 236.095 201.857C238.348 197.334 243.453 195.374 247.953 196.728C248.65 196.938 249.337 196.384 249.304 195.657C249.202 193.431 249.837 191.151 251.295 189.21C254.473 184.977 260.51 184.13 264.965 186.987L266.083 187.704C266.783 188.153 267.734 187.668 267.732 186.837C267.728 184.522 268.521 182.177 270.213 180.241C273.508 176.471 279.186 175.912 283.401 178.614L291.963 184.104C292.607 184.517 293.473 184.142 293.604 183.389C300.938 141.112 282.72 96.6044 243.835 72.4764C194.161 41.6534 128.269 56.0834 96.0219 104.845C62.5339 155.484 77.0339 223.559 127.971 256.22C162.268 278.212 204.243 278.463 237.798 260.552C238.517 260.168 238.551 259.145 237.864 258.705L233.721 256.047ZM166.369 196.333C148.974 185.179 143.896 161.952 155.05 144.556C166.204 127.161 189.431 122.083 206.827 133.237C224.223 144.391 229.3 167.618 218.146 185.014C206.991 202.41 183.764 207.487 166.369 196.333Z" fill="#EDD59F"/>
<path d="M233.721 256.047C229.43 253.296 227.621 247.76 229.823 243.163C231.259 240.165 233.934 238.27 236.876 237.679C237.819 237.489 238.052 236.254 237.243 235.735C232.952 232.984 231.143 227.448 233.345 222.851C234.781 219.853 237.456 217.958 240.398 217.367C241.341 217.177 241.574 215.942 240.765 215.423L239.937 214.892C235.594 212.107 233.795 206.476 236.095 201.857C238.348 197.334 243.453 195.374 247.953 196.728C248.65 196.938 249.337 196.384 249.304 195.657C249.202 193.431 249.837 191.151 251.295 189.21C254.473 184.977 260.51 184.13 264.965 186.987L266.083 187.704C266.783 188.153 267.734 187.668 267.732 186.837C267.728 184.522 268.521 182.177 270.213 180.241C273.508 176.471 279.186 175.912 283.401 178.614L291.963 184.104C292.607 184.517 293.473 184.142 293.604 183.389C300.938 141.112 282.72 96.6044 243.835 72.4764C194.161 41.6534 128.269 56.0834 96.0219 104.845C62.5339 155.484 77.0339 223.559 127.971 256.22C162.268 278.212 204.243 278.463 237.798 260.552C238.517 260.168 238.551 259.145 237.864 258.705L233.721 256.047ZM166.369 196.333C148.974 185.179 143.896 161.952 155.05 144.556C166.204 127.161 189.431 122.083 206.827 133.237C224.223 144.391 229.3 167.618 218.146 185.014C206.991 202.41 183.764 207.487 166.369 196.333Z" fill="#511F12"/>
<path d="M170.324 212.204C174.296 212.668 178.757 213.17 184.025 214.894C196.222 218.887 211.631 229.635 219.212 212.454C221.91 206.34 222.628 199.281 226.603 193.899C232.584 185.808 251.014 181.484 248.579 168.907C247.645 164.084 244.413 160.091 241.551 156.098C233.61 145.018 230.667 124.688 214.429 123.48C208.436 123.034 202.122 124.032 196.615 121.626C191.766 119.507 188.241 115.007 183.342 113.008C171.712 108.264 163.856 121.91 153.562 124.911C144.507 127.551 132.742 125.559 133.082 138.714C133.185 142.677 133.959 146.663 133.338 150.579C132.59 155.298 129.897 159.448 128.186 163.908C122.728 178.134 141.811 186.575 148.38 197.982C155.52 210.379 161.793 211.206 170.324 212.204ZM155.05 144.556C166.204 127.161 189.431 122.083 206.827 133.237C224.223 144.391 229.3 167.618 218.146 185.014C206.992 202.409 183.765 207.487 166.369 196.333C148.973 185.179 143.896 161.952 155.05 144.556Z" fill="#E5A55A"/>
<path d="M170.324 212.21C171.496 212.276 172.67 212.312 173.834 212.346C167.742 207.848 159.815 205.948 154.556 200.499C149.323 195.076 146.05 190.939 142.398 184.84C139.363 179.771 134.546 176.383 132.737 170.472C131.42 166.165 134.11 162.16 135.999 158.502C136.912 156.734 138.014 154.798 138.227 152.778C138.538 149.825 136.681 147.478 137.622 144.476C138.058 143.083 138.74 141.773 139.108 140.361C139.623 138.388 139.53 136.214 140.551 134.448C142.118 131.739 146.228 130.259 148.935 128.955C152.868 127.061 156.943 125.485 161.032 123.965C169.194 120.933 177.529 118.156 185.054 113.693C180 110.582 173.326 112.631 168.325 115.827C163.325 119.023 158.882 123.341 153.21 125.084C147.786 126.751 141.428 126.006 136.936 129.474C129.248 135.409 135.215 146.216 132.519 154.004C130.929 158.598 127.723 162.657 127.317 167.631C126.906 172.66 129.605 177.46 132.97 181.22C136.335 184.98 140.422 188.049 143.715 191.872C148.969 197.972 152.395 206.127 159.562 209.795C162.865 211.487 166.586 211.999 170.324 212.21Z" fill="#C67626"/>
<path d="M277.436 105.236C269.034 92.3944 257.769 81.1214 243.833 72.4744C194.159 41.6514 128.267 56.0814 96.0199 104.843C71.5809 141.798 72.7059 188.035 94.8919 223.022C98.0329 224.648 102.085 197.2 102.344 195.142C103.586 185.267 104.485 175.08 102.714 165.209C101.153 156.502 92.9939 145.827 97.2709 136.937C99.1559 133.019 103.096 130.47 105.342 126.748C109.568 119.748 107.149 109.869 112.274 103.498C115.882 99.0134 122.045 97.7564 127.259 95.3204C147.261 85.9724 162.597 59.0154 188.19 70.0024C199.478 74.8484 205.061 86.7854 215.296 92.5114C227.173 99.1564 237.071 88.9354 249.155 91.0324C255.451 92.1254 260.289 96.9734 265.484 100.695C268.954 103.177 273.319 105.194 277.436 105.236Z" fill="#3A1509"/>
<path d="M191.16 82.6214L182.085 71.9614C181.015 70.7054 179.112 70.5524 177.856 71.6214C176.6 72.6914 176.447 74.5944 177.517 75.8504L186.592 86.5104C187.662 87.7664 189.565 87.9194 190.821 86.8504C192.077 85.7814 192.23 83.8784 191.16 82.6214Z" fill="#86D0E2"/>
<path d="M145.16 105.621L136.085 94.9614C135.015 93.7054 133.112 93.5524 131.856 94.6214C130.6 95.6914 130.447 97.5944 131.517 98.8504L140.592 109.51C141.662 110.766 143.565 110.919 144.821 109.85C146.077 108.781 146.23 106.878 145.16 105.621Z" fill="#86D0E2"/>
<path d="M204.16 250.621L195.085 239.961C194.015 238.705 192.112 238.552 190.856 239.621C189.6 240.691 189.447 242.594 190.516 243.85L199.591 254.51C200.661 255.766 202.564 255.919 203.82 254.85C205.077 253.781 205.23 251.878 204.16 250.621Z" fill="#86D0E2"/>
<path d="M152.187 93.0064L165.886 90.1214C167.501 89.7814 168.544 88.1824 168.204 86.5674C167.864 84.9524 166.265 83.9104 164.65 84.2504L150.95 87.1354C149.335 87.4754 148.293 89.0744 148.633 90.6894C148.973 92.3034 150.572 93.3464 152.187 93.0064Z" fill="#FFC543"/>
<path d="M260.186 225.006L273.885 222.121C275.5 221.781 276.543 220.182 276.203 218.567C275.863 216.952 274.264 215.91 272.649 216.25L258.949 219.135C257.334 219.475 256.292 221.074 256.632 222.689C256.973 224.303 258.572 225.346 260.186 225.006Z" fill="#FFC543"/>
<path d="M102.187 152.006L115.886 149.121C117.501 148.781 118.544 147.182 118.204 145.567C117.864 143.952 116.265 142.91 114.65 143.25L100.95 146.135C99.3349 146.475 98.2929 148.074 98.6329 149.689C98.9729 151.303 100.572 152.346 102.187 152.006Z" fill="#FFC543"/>
<path d="M221.613 110.427L232.169 101.23C233.413 100.146 233.544 98.2414 232.46 96.9974C231.376 95.7534 229.472 95.6224 228.227 96.7064L217.671 105.903C216.427 106.987 216.296 108.892 217.38 110.136C218.464 111.379 220.369 111.511 221.613 110.427Z" fill="#3F51B5" fill-opacity="0.74"/>
<path d="M183.613 98.4274L194.169 89.2304C195.413 88.1464 195.544 86.2414 194.46 84.9974C193.376 83.7534 191.472 83.6224 190.227 84.7064L179.671 93.9034C178.427 94.9874 178.296 96.8924 179.38 98.1364C180.464 99.3794 182.369 99.5114 183.613 98.4274Z" fill="#3F51B5" fill-opacity="0.74"/>
<path d="M186.613 257.427L197.169 248.23C198.413 247.146 198.544 245.241 197.46 243.997C196.376 242.753 194.472 242.622 193.227 243.706L182.671 252.903C181.427 253.987 181.296 255.892 182.38 257.136C183.464 258.379 185.369 258.511 186.613 257.427Z" fill="#3F51B5" fill-opacity="0.74"/>
<path d="M123.613 235.427L134.169 226.23C135.413 225.146 135.544 223.241 134.46 221.997C133.376 220.753 131.471 220.622 130.227 221.706L119.671 230.903C118.427 231.987 118.296 233.892 119.38 235.136C120.464 236.379 122.369 236.511 123.613 235.427Z" fill="#6E73ED"/>
<path d="M146.326 233.144L159.575 237.667C161.137 238.2 162.85 237.359 163.383 235.797C163.916 234.235 163.075 232.522 161.513 231.989L148.264 227.466C146.702 226.933 144.989 227.774 144.456 229.336C143.923 230.897 144.765 232.611 146.326 233.144Z" fill="#FFC543"/>
<path d="M211.672 212.903L207.047 226.117C206.502 227.674 207.33 229.394 208.888 229.94C210.445 230.485 212.165 229.657 212.711 228.099L217.336 214.885C217.881 213.328 217.053 211.608 215.495 211.062C213.937 210.517 212.217 211.345 211.672 212.903Z" fill="#FFC543"/>
<path d="M102.126 188.484L114.512 181.958C115.972 181.189 116.537 179.365 115.768 177.905C114.999 176.445 113.175 175.88 111.715 176.649L99.3289 183.175C97.8689 183.944 97.3039 185.768 98.0729 187.228C98.8419 188.688 100.666 189.253 102.126 188.484Z" fill="#6E73ED"/>
<path d="M231.378 283.508L243.355 290.758C244.766 291.612 246.621 291.157 247.475 289.745C248.33 288.333 247.874 286.479 246.462 285.625L234.485 278.375C233.074 277.52 231.219 277.976 230.365 279.388C229.511 280.8 229.967 282.654 231.378 283.508Z" fill="#3F51B5" fill-opacity="0.74"/>
<path d="M115.665 103.937L104.218 111.997C102.869 112.947 102.542 114.828 103.492 116.177C104.442 117.526 106.323 117.853 107.672 116.903L119.119 108.843C120.468 107.893 120.795 106.012 119.845 104.663C118.895 103.314 117.014 102.987 115.665 103.937Z" fill="#6E73ED"/>
<path d="M239.286 124.429L251.672 117.903C253.132 117.134 253.697 115.31 252.928 113.851C252.159 112.391 250.335 111.826 248.875 112.595L236.489 119.121C235.029 119.89 234.464 121.714 235.233 123.174C236.002 124.633 237.826 125.198 239.286 124.429Z" fill="#6E73ED"/>
<path d="M264.672 162.903L277.058 156.377C278.518 155.608 279.083 153.784 278.314 152.324C277.545 150.864 275.721 150.299 274.261 151.068L261.875 157.594C260.415 158.363 259.85 160.187 260.619 161.647C261.388 163.107 263.212 163.672 264.672 162.903Z" fill="#6E73ED"/>
<path d="M280.672 284.903L293.058 278.377C294.518 277.608 295.083 275.784 294.314 274.324C293.545 272.864 291.721 272.299 290.261 273.068L277.875 279.594C276.415 280.363 275.85 282.187 276.619 283.647C277.388 285.107 279.212 285.672 280.672 284.903Z" fill="#6E73ED"/>
<path d="M118.265 144.821L115.452 131.106C115.121 129.49 113.527 128.439 111.91 128.77C110.294 129.102 109.242 130.695 109.574 132.312L112.387 146.026C112.718 147.642 114.312 148.694 115.929 148.362C117.546 148.031 118.597 146.437 118.265 144.821Z" fill="#3F51B5" fill-opacity="0.74"/>
<path d="M256.265 142.821L253.452 129.106C253.12 127.49 251.527 126.439 249.91 126.77C248.294 127.102 247.242 128.695 247.574 130.312L250.387 144.026C250.719 145.642 252.312 146.694 253.929 146.362C255.546 146.031 256.597 144.437 256.265 142.821Z" fill="#86D0E2"/>
<path d="M251.265 100.821L248.452 87.1064C248.12 85.4904 246.527 84.4394 244.91 84.7704C243.294 85.1024 242.242 86.6954 242.574 88.3124L245.387 102.026C245.719 103.642 247.312 104.694 248.929 104.362C250.546 104.031 251.597 102.437 251.265 100.821Z" fill="#6E73ED"/>
<path d="M158.265 254.821L155.452 241.107C155.121 239.491 153.527 238.439 151.91 238.771C150.294 239.103 149.242 240.696 149.574 242.313L152.387 256.027C152.718 257.643 154.312 258.695 155.929 258.363C157.546 258.031 158.597 256.437 158.265 254.821Z" fill="#6E73ED"/>
<path d="M124.265 208.821L121.452 195.107C121.121 193.491 119.527 192.44 117.91 192.771C116.294 193.103 115.242 194.696 115.574 196.313L118.387 210.027C118.718 211.643 120.312 212.695 121.929 212.363C123.546 212.031 124.597 210.437 124.265 208.821Z" fill="#86D0E2"/>
<path d="M283.979 246.94C283.223 246.275 282.751 245.134 282.168 244.437C281.799 243.996 281.315 243.601 281.187 243.04C280.926 241.895 282.114 240.985 282.718 240.187C283.191 239.563 283.684 238.92 284.369 238.54C284.775 238.314 285.228 238.193 285.677 238.073C286.04 237.976 286.408 237.878 286.784 237.885C287.283 237.893 287.758 238.084 288.247 238.179C288.611 238.249 288.984 238.267 289.348 238.339C290.199 238.506 290.987 238.978 291.536 239.65C291.854 240.039 292.097 240.506 292.139 241.007C292.174 241.433 292.063 241.859 291.902 242.255C291.682 242.798 291.366 243.303 290.969 243.733C290.248 244.515 289.29 245.025 288.391 245.594C287.956 245.869 287.532 246.16 287.117 246.463C286.779 246.71 286.444 246.966 286.068 247.149C285.797 247.282 285.346 247.492 285.035 247.45C284.623 247.392 284.279 247.204 283.979 246.94Z" fill="#EDD59F"/>
<path d="M292.723 241.299C292.36 240.539 292.024 238.528 291.252 238.193C289.252 237.323 287.868 237.589 285.821 238.34C284.872 238.688 283.949 239.24 283.434 240.11C282.919 240.98 282.934 242.214 283.672 242.905C284.005 243.217 284.458 243.405 284.711 243.785C285.179 244.489 284.735 245.304 284.092 245.949C283.598 246.445 283.741 247.292 284.39 247.557C285.13 247.858 286.089 247.863 286.914 247.793C290.095 247.521 294.807 245.665 292.723 241.299Z" fill="#511F12"/>
<path d="M268.345 240.635C267.835 240.187 267.521 239.412 267.129 238.941C266.881 238.643 266.554 238.377 266.471 237.996C266.302 237.217 267.117 236.588 267.535 236.04C267.862 235.611 268.202 235.169 268.671 234.905C268.949 234.748 269.259 234.662 269.566 234.577C269.814 234.508 270.065 234.439 270.321 234.441C270.661 234.443 270.983 234.57 271.316 234.631C271.564 234.677 271.818 234.686 272.065 234.732C272.644 234.84 273.177 235.156 273.546 235.61C273.76 235.873 273.922 236.19 273.947 236.531C273.968 236.821 273.889 237.113 273.776 237.384C273.622 237.756 273.404 238.102 273.13 238.399C272.633 238.937 271.977 239.292 271.36 239.686C271.062 239.877 270.771 240.078 270.486 240.288C270.254 240.459 270.024 240.636 269.767 240.764C269.581 240.856 269.273 241.003 269.061 240.976C268.78 240.938 268.547 240.812 268.345 240.635Z" fill="#EDD59F"/>
<path d="M257.871 284.526C258.196 283.93 258.883 283.454 259.257 282.969C259.494 282.661 259.681 282.284 260.035 282.12C260.758 281.784 261.55 282.442 262.177 282.729C262.667 282.954 263.173 283.189 263.534 283.589C263.748 283.826 263.9 284.109 264.05 284.39C264.171 284.617 264.294 284.847 264.349 285.097C264.421 285.429 264.369 285.771 264.382 286.109C264.392 286.36 264.438 286.61 264.448 286.862C264.469 287.45 264.278 288.04 263.916 288.5C263.706 288.767 263.433 288.994 263.105 289.093C262.826 289.177 262.525 289.164 262.236 289.113C261.839 289.044 261.453 288.907 261.104 288.705C260.47 288.338 259.98 287.776 259.46 287.261C259.209 287.012 258.948 286.772 258.681 286.54C258.464 286.351 258.241 286.165 258.059 285.942C257.928 285.781 257.717 285.512 257.697 285.3C257.67 285.017 257.742 284.762 257.871 284.526Z" fill="#E279A1"/>
<path d="M262.545 266.543C262.035 266.095 261.721 265.32 261.329 264.849C261.081 264.551 260.754 264.285 260.671 263.904C260.502 263.125 261.317 262.496 261.735 261.947C262.062 261.518 262.402 261.076 262.871 260.812C263.149 260.655 263.459 260.569 263.766 260.484C264.014 260.415 264.265 260.346 264.521 260.348C264.861 260.35 265.183 260.477 265.516 260.538C265.764 260.584 266.017 260.593 266.265 260.639C266.843 260.747 267.377 261.063 267.746 261.517C267.96 261.78 268.122 262.097 268.147 262.438C268.168 262.728 268.089 263.02 267.976 263.291C267.822 263.663 267.604 264.009 267.33 264.306C266.833 264.844 266.177 265.199 265.56 265.593C265.262 265.783 264.971 265.985 264.686 266.195C264.454 266.366 264.224 266.543 263.967 266.671C263.781 266.763 263.473 266.91 263.261 266.883C262.981 266.847 262.748 266.721 262.545 266.543Z" fill="#EDD59F"/>
</svg>
